<svg id="visual" viewBox="0 0 900 600" width="900" height="600" xmlns="http://www.w3.org/2000/svg" xmlns:xlink="http://www.w3.org/1999/xlink" version="1.1"><rect x="0" y="0" width="900" height="600" fill="#294773"></rect><defs><linearGradient id="grad1_0" x1="33.3%" y1="0%" x2="100%" y2="100%"><stop offset="20%" stop-color="#294773" stop-opacity="1"></stop><stop offset="80%" stop-color="#294773" stop-opacity="1"></stop></linearGradient></defs><defs><linearGradient id="grad2_0" x1="0%" y1="0%" x2="66.7%" y2="100%"><stop offset="20%" stop-color="#294773" stop-opacity="1"></stop><stop offset="80%" stop-color="#294773" stop-opacity="1"></stop></linearGradient></defs><g transform="translate(900, 0)"><path d="M0 486.7C-64.4 473.5 -128.9 460.3 -177.6 428.7C-226.2 397.1 -259.1 347.2 -306.9 306.9C-354.6 266.6 -417.2 235.8 -449.7 186.3C-482.2 136.7 -484.5 68.4 -486.7 0L0 0Z" fill="#2c9a30"></path></g><g transform="translate(0, 600)"><path d="M0 -486.7C68.9 -486.3 137.8 -485.9 186.3 -449.7C234.7 -413.5 262.7 -341.4 287.1 -287.1C311.5 -232.7 332.3 -196.1 364.9 -151.2C397.6 -106.3 442.2 -53.1 486.7 0L0 0Z" fill="#2c9a30"></path></g></svg>